<svg aria-hidden="true" style="position: absolute; width: 0; height: 0; overflow: hidden;" version="1.1" xmlns="http://www.w3.org/2000/svg" xmlns:xlink="http://www.w3.org/1999/xlink">
<defs>
<symbol id="icon-arrow" viewBox="0 0 32 32">
<path fill="none" stroke="#d1d5db" style="stroke: var(--color1, #d1d5db)" stroke-linejoin="round" stroke-linecap="round" stroke-miterlimit="4" stroke-width="3.4286" d="M13.333 6.857h-6.095c-1.683 0-3.048 1.364-3.048 3.048v15.238c0 1.683 1.364 3.048 3.048 3.048h15.238c1.683 0 3.048-1.364 3.048-3.048v-6.095M19.429 3.81h9.143M28.571 3.81v9.143M28.571 3.81l-15.238 15.238"></path>
</symbol>
<symbol id="icon-check-mark" viewBox="0 0 32 32">
<path fill="none" stroke="#d1d5db" style="stroke: var(--color1, #d1d5db)" stroke-linejoin="round" stroke-linecap="round" stroke-miterlimit="4" stroke-width="3.2" d="M11.2 16l3.2 3.2 6.4-6.4M30.4 16c0 7.953-6.447 14.4-14.4 14.4s-14.4-6.447-14.4-14.4c0-7.953 6.447-14.4 14.4-14.4s14.4 6.447 14.4 14.4z"></path>
</symbol>
<symbol id="icon-community" viewBox="0 0 32 32">
<path fill="none" stroke="#9ca3af" style="stroke: var(--color2, #9ca3af)" stroke-linejoin="miter" stroke-linecap="butt" stroke-miterlimit="4" stroke-width="1.4545" d="M20.509 8.291c0 2.49-2.019 4.509-4.509 4.509s-4.509-2.019-4.509-4.509c0-2.49 2.019-4.509 4.509-4.509s4.509 2.019 4.509 4.509zM29.236 11.782c0 1.526-1.237 2.764-2.764 2.764s-2.764-1.237-2.764-2.764c0-1.526 1.237-2.764 2.764-2.764s2.764 1.237 2.764 2.764zM16 17.745c3.454 0 6.255 2.8 6.255 6.255v4.509h-12.509v-4.509c0-3.454 2.8-6.255 6.255-6.255zM8.291 11.782c0 1.526-1.237 2.764-2.764 2.764s-2.764-1.237-2.764-2.764c0-1.526 1.237-2.764 2.764-2.764s2.764 1.237 2.764 2.764zM27.2 28.509v-4.509c0-1.601-0.336-3.125-0.943-4.504 0.071-0.003 0.143-0.005 0.215-0.005 2.49 0 4.509 2.019 4.509 4.509v4.509h-3.782zM4.8 24v4.509h-3.782v-4.509c0-2.49 2.019-4.509 4.509-4.509 0.072 0 0.144 0.002 0.215 0.005-0.606 1.379-0.943 2.903-0.943 4.504z"></path>
</symbol>
<symbol id="icon-contact" viewBox="0 0 32 32">
<path fill="none" stroke="#9ca3af" style="stroke: var(--color2, #9ca3af)" stroke-linejoin="miter" stroke-linecap="butt" stroke-miterlimit="4" stroke-width="2.4" d="M6.181 23.017l-0.322 0.7 0.503 0.584c2.331 2.704 5.785 4.418 9.638 4.418s7.307-1.715 9.637-4.418l0.503-0.584-0.322-0.7c-1.706-3.714-5.46-6.298-9.819-6.298s-8.114 2.583-9.819 6.297zM30.16 16c0 7.82-6.34 14.16-14.16 14.16s-14.16-6.34-14.16-14.16c0-7.82 6.34-14.16 14.16-14.16s14.16 6.34 14.16 14.16zM16 15.28c2.784 0 5.040-2.256 5.040-5.040s-2.256-5.040-5.040-5.040c-2.784 0-5.040 2.256-5.040 5.040s2.256 5.040 5.040 5.040z"></path>
</symbol>
<symbol id="icon-curl" viewBox="0 0 32 32">
<path fill="none" stroke="#6366f1" style="stroke: var(--color3, #6366f1)" stroke-linejoin="round" stroke-linecap="round" stroke-miterlimit="4" stroke-width="3" d="M8 18.667v-8c0-2.209 1.791-4 4-4s4 1.791 4 4v10.667c0 2.209 1.791 4 4 4s4-1.791 4-4v-8"></path>
<path fill="none" stroke="#6366f1" style="stroke: var(--color3, #6366f1)" stroke-linejoin="round" stroke-linecap="round" stroke-miterlimit="4" stroke-width="3" d="M24 4h0c1.473 0 2.667 1.194 2.667 2.667v4c0 1.473-1.194 2.667-2.667 2.667h-0c-1.473 0-2.667-1.194-2.667-2.667v-4c0-1.473 1.194-2.667 2.667-2.667z"></path>
<path fill="none" stroke="#6366f1" style="stroke: var(--color3, #6366f1)" stroke-linejoin="round" stroke-linecap="round" stroke-miterlimit="4" stroke-width="3" d="M8 18.667h0c1.473 0 2.667 1.194 2.667 2.667v4c0 1.473-1.194 2.667-2.667 2.667h-0c-1.473 0-2.667-1.194-2.667-2.667v-4c0-1.473 1.194-2.667 2.667-2.667z"></path>
</symbol>
<symbol id="icon-dollar" viewBox="0 0 32 32">
<path fill="#9ca3af" style="fill: var(--color2, #9ca3af)" d="M19.252 11.986c0.434 0.501 1.192 0.554 1.693 0.12s0.554-1.192 0.12-1.693l-1.813 1.573zM12.749 20.014c-0.434-0.501-1.192-0.554-1.693-0.12s-0.554 1.192-0.12 1.693l1.813-1.573zM17.2 8c0-0.663-0.537-1.2-1.2-1.2s-1.2 0.537-1.2 1.2h2.4zM14.8 24c-0 0.663 0.537 1.2 1.2 1.2s1.2-0.537 1.2-1.2h-2.4zM29.2 16c0 7.29-5.91 13.2-13.2 13.2v2.4c8.616 0 15.6-6.984 15.6-15.6h-2.4zM16 29.2c-7.29 0-13.2-5.91-13.2-13.2h-2.4c0 8.616 6.984 15.6 15.6 15.6v-2.4zM2.8 16c0-7.29 5.91-13.2 13.2-13.2v-2.4c-8.616 0-15.6 6.984-15.6 15.6h2.4zM16 2.8c7.29 0 13.2 5.91 13.2 13.2h2.4c0-8.616-6.984-15.6-15.6-15.6v2.4zM16 14.8c-1.122 0-2.083-0.305-2.728-0.736-0.654-0.436-0.872-0.907-0.872-1.264h-2.4c0 1.41 0.857 2.539 1.94 3.261 1.092 0.728 2.53 1.139 4.060 1.139v-2.4zM12.4 12.8c0-0.358 0.217-0.828 0.872-1.264 0.646-0.43 1.607-0.736 2.728-0.736v-2.4c-1.529 0-2.968 0.411-4.060 1.139-1.083 0.722-1.94 1.851-1.94 3.261h2.4zM16 10.8c1.529 0 2.708 0.56 3.252 1.186l1.813-1.573c-1.116-1.286-3.040-2.014-5.064-2.014v2.4zM16 17.2c1.122 0 2.083 0.305 2.728 0.736 0.654 0.436 0.872 0.907 0.872 1.264h2.4c0-1.41-0.857-2.539-1.94-3.261-1.092-0.728-2.531-1.139-4.060-1.139v2.4zM14.8 8v1.6h2.4v-1.6h-2.4zM14.8 22.4l-0 1.6h2.4v-1.6h-2.4zM16 21.2c-1.529 0-2.708-0.56-3.251-1.186l-1.813 1.573c1.116 1.286 3.040 2.014 5.064 2.014v-2.4zM19.6 19.2c0 0.358-0.217 0.828-0.872 1.264-0.646 0.43-1.607 0.736-2.728 0.736v2.4c1.529 0 2.968-0.411 4.060-1.139 1.083-0.722 1.94-1.852 1.94-3.261h-2.4zM14.8 9.6l0 12.8h2.4v-12.8h-2.4z"></path>
</symbol>
<symbol id="icon-down" viewBox="0 0 32 32">
<path fill="#a1a9b8" style="fill: var(--color4, #a1a9b8)" d="M17.562 24.048c-0.801 1.001-2.323 1.001-3.123 0l-11.839-14.798c-1.048-1.31-0.115-3.249 1.562-3.249h23.678c1.677 0 2.609 1.94 1.562 3.249l-11.839 14.798z"></path>
</symbol>
<symbol id="icon-earth" viewBox="0 0 32 32">
<path fill="none" stroke="#9ca3af" style="stroke: var(--color2, #9ca3af)" stroke-linejoin="round" stroke-linecap="round" stroke-miterlimit="4" stroke-width="2.4" d="M1.688 14.4h3.112c1.767 0 3.2 1.433 3.2 3.2v1.6c0 1.767 1.433 3.2 3.2 3.2s3.2 1.433 3.2 3.2v4.712M9.6 3.097v2.503c0 2.209 1.791 4 4 4h0.8c1.767 0 3.2 1.433 3.2 3.2s1.433 3.2 3.2 3.2c1.767 0 3.2-1.433 3.2-3.2s1.433-3.2 3.2-3.2h1.703M20.8 29.581v-3.981c0-1.767 1.433-3.2 3.2-3.2h4.903M30.4 16c0 7.953-6.447 14.4-14.4 14.4s-14.4-6.447-14.4-14.4c0-7.953 6.447-14.4 14.4-14.4s14.4 6.447 14.4 14.4z"></path>
</symbol>
<symbol id="icon-education" viewBox="0 0 32 32">
<path fill="none" stroke="#9ca3af" style="stroke: var(--color2, #9ca3af)" stroke-linejoin="round" stroke-linecap="round" stroke-miterlimit="4" stroke-width="2.4" d="M16 19.2l14.4-8-14.4-8-14.4 8 14.4 8zM16 19.2l9.855-5.475c0.868 2.189 1.345 4.576 1.345 7.075 0 1.122-0.096 2.222-0.281 3.291-4.176 0.406-7.961 2.15-10.919 4.798-2.958-2.648-6.743-4.392-10.919-4.798-0.185-1.069-0.281-2.169-0.281-3.291 0-2.498 0.477-4.885 1.345-7.075l9.855 5.475zM9.6 28.8v-12l6.4-3.556"></path>
</symbol>
<symbol id="icon-filter" viewBox="0 0 32 32">
<path fill="none" stroke="#9ca3af" style="stroke: var(--color2, #9ca3af)" stroke-linejoin="round" stroke-linecap="round" stroke-miterlimit="4" stroke-width="3.5556" d="M2.667 4.444c0-0.982 0.796-1.778 1.778-1.778h23.111c0.982 0 1.778 0.796 1.778 1.778v3.412c0 0.472-0.187 0.924-0.521 1.257l-9.329 9.329c-0.334 0.333-0.521 0.786-0.521 1.257v3.708l-5.926 5.926v-9.634c0-0.471-0.187-0.924-0.521-1.257l-9.329-9.329c-0.333-0.333-0.521-0.786-0.521-1.257v-3.412z"></path>
</symbol>
<symbol id="icon-house" viewBox="0 0 32 32">
<path fill="none" stroke="#9ca3af" style="stroke: var(--color2, #9ca3af)" stroke-linejoin="round" stroke-linecap="round" stroke-miterlimit="4" stroke-width="2.4" d="M27.2 30.4v-25.6c0-1.767-1.433-3.2-3.2-3.2h-16c-1.767 0-3.2 1.433-3.2 3.2v25.6M27.2 30.4h3.2M27.2 30.4h-8M4.8 30.4h-3.2M4.8 30.4h8M11.2 8h1.6M11.2 14.4h1.6M19.2 8h1.6M19.2 14.4h1.6M12.8 30.4v-8c0-0.884 0.716-1.6 1.6-1.6h3.2c0.884 0 1.6 0.716 1.6 1.6v8M12.8 30.4h6.4"></path>
</symbol>
<symbol id="icon-pencil" viewBox="0 0 32 32">
<path fill="none" stroke="#9ca3af" style="stroke: var(--color2, #9ca3af)" stroke-linejoin="round" stroke-linecap="round" stroke-miterlimit="4" stroke-width="2.5263" d="M13.474 5.053h-8.421c-1.86 0-3.368 1.508-3.368 3.368v18.526c0 1.86 1.508 3.368 3.368 3.368h18.526c1.86 0 3.368-1.508 3.368-3.368v-8.421M24.566 2.671c1.315-1.315 3.448-1.315 4.764 0s1.316 3.448 0 4.764l-14.46 14.46h-4.764v-4.764l14.46-14.46z"></path>
</symbol>
<symbol id="icon-pizza" viewBox="0 0 32 32">
<path fill="none" stroke="#9ca3af" style="stroke: var(--color2, #9ca3af)" stroke-linejoin="round" stroke-linecap="round" stroke-miterlimit="4" stroke-width="3" d="M16 28.667c-4.053 0-7.936-0.952-11.333-2.644l11.333-22.023 11.333 22.023c-3.523 1.745-7.402 2.65-11.333 2.644z"></path>
<path fill="none" stroke="#9ca3af" style="stroke: var(--color2, #9ca3af)" stroke-linejoin="round" stroke-linecap="round" stroke-miterlimit="4" stroke-width="3" d="M7.173 21.155c2.813 1.436 5.928 2.183 9.087 2.179 3.001 0.004 5.965-0.67 8.669-1.972"></path>
<path fill="none" stroke="#9ca3af" style="stroke: var(--color2, #9ca3af)" stroke-linejoin="round" stroke-linecap="round" stroke-miterlimit="4" stroke-width="3" d="M17.333 14.68v-0.013"></path>
<path fill="none" stroke="#9ca3af" style="stroke: var(--color2, #9ca3af)" stroke-linejoin="round" stroke-linecap="round" stroke-miterlimit="4" stroke-width="3" d="M14.667 18.667v-0.013"></path>
</symbol>
<symbol id="icon-report" viewBox="0 0 32 32">
<path fill="none" stroke="#9ca3af" style="stroke: var(--color2, #9ca3af)" stroke-linejoin="round" stroke-linecap="round" stroke-miterlimit="4" stroke-width="2.4" d="M11.2 27.2v-9.6c0-1.767-1.433-3.2-3.2-3.2h-3.2c-1.767 0-3.2 1.433-3.2 3.2v9.6c0 1.767 1.433 3.2 3.2 3.2h3.2c1.767 0 3.2-1.433 3.2-3.2zM11.2 27.2v-16c0-1.767 1.433-3.2 3.2-3.2h3.2c1.767 0 3.2 1.433 3.2 3.2v16M11.2 27.2c0 1.767 1.433 3.2 3.2 3.2h3.2c1.767 0 3.2-1.433 3.2-3.2M20.8 27.2v-22.4c0-1.767 1.433-3.2 3.2-3.2h3.2c1.767 0 3.2 1.433 3.2 3.2v22.4c0 1.767-1.433 3.2-3.2 3.2h-3.2c-1.767 0-3.2-1.433-3.2-3.2z"></path>
</symbol>
<symbol id="icon-search" viewBox="0 0 32 32">
<path fill="none" stroke="#fff" style="stroke: var(--color5, #fff)" stroke-linejoin="round" stroke-linecap="round" stroke-miterlimit="4" stroke-width="2.4" d="M30.4 30.4l-9.6-9.6M24 12.8c0 6.186-5.014 11.2-11.2 11.2s-11.2-5.014-11.2-11.2c0-6.186 5.014-11.2 11.2-11.2s11.2 5.014 11.2 11.2z"></path>
</symbol>
<symbol id="icon-settings" viewBox="0 0 32 32">
<path fill="none" stroke="#9ca3af" style="stroke: var(--color2, #9ca3af)" stroke-linejoin="round" stroke-linecap="round" stroke-miterlimit="4" stroke-width="2.4" d="M13.319 3.708c0.682-2.81 4.679-2.81 5.361 0 0.441 1.815 2.52 2.677 4.116 1.705 2.47-1.505 5.296 1.321 3.791 3.791-0.972 1.595-0.111 3.675 1.705 4.116 2.81 0.682 2.81 4.679 0 5.361-1.815 0.441-2.677 2.52-1.705 4.116 1.505 2.47-1.321 5.296-3.791 3.791-1.595-0.972-3.675-0.111-4.116 1.705-0.682 2.81-4.679 2.81-5.361 0-0.441-1.815-2.521-2.677-4.116-1.705-2.47 1.505-5.296-1.321-3.791-3.791 0.972-1.595 0.111-3.675-1.705-4.116-2.81-0.682-2.81-4.679 0-5.361 1.815-0.441 2.677-2.521 1.705-4.116-1.505-2.47 1.321-5.296 3.791-3.791 1.595 0.972 3.675 0.111 4.116-1.705z"></path>
<path fill="none" stroke="#9ca3af" style="stroke: var(--color2, #9ca3af)" stroke-linejoin="round" stroke-linecap="round" stroke-miterlimit="4" stroke-width="2.4" d="M20.8 16c0 2.651-2.149 4.8-4.8 4.8s-4.8-2.149-4.8-4.8c0-2.651 2.149-4.8 4.8-4.8s4.8 2.149 4.8 4.8z"></path>
</symbol>
<symbol id="icon-Star" viewBox="0 0 32 32">
<path fill="none" stroke="#d1d5db" style="stroke: var(--color1, #d1d5db)" stroke-linejoin="round" stroke-linecap="round" stroke-miterlimit="4" stroke-width="2.4" d="M4.8 1.6v6.4M1.6 4.8h6.4M6.4 24v6.4M3.2 27.2h6.4M17.6 1.6l3.657 10.971 9.143 3.429-9.143 3.429-3.657 10.971-3.657-10.971-9.143-3.429 9.143-3.429 3.657-10.971z"></path>
</symbol>
<symbol id="icon-swim" viewBox="0 0 32 32">
<path fill="none" stroke="#6366f1" style="stroke: var(--color3, #6366f1)" stroke-linejoin="round" stroke-linecap="round" stroke-miterlimit="4" stroke-width="3" d="M22.667 12c0 0.736-0.597 1.333-1.333 1.333s-1.333-0.597-1.333-1.333c0-0.736 0.597-1.333 1.333-1.333s1.333 0.597 1.333 1.333z"></path>
<path fill="none" stroke="#6366f1" style="stroke: var(--color3, #6366f1)" stroke-linejoin="round" stroke-linecap="round" stroke-miterlimit="4" stroke-width="3" d="M8 14.667l5.333-2.667 4.667 4-2 2.667"></path>
<path fill="none" stroke="#6366f1" style="stroke: var(--color3, #6366f1)" stroke-linejoin="round" stroke-linecap="round" stroke-miterlimit="4" stroke-width="3" d="M4 22.333c0.415 0.206 0.87 0.32 1.333 0.333 1.054 0.022 2.052-0.477 2.667-1.333s1.612-1.356 2.667-1.333c1.054-0.022 2.052 0.477 2.667 1.333s1.612 1.355 2.667 1.333c1.054 0.022 2.052-0.477 2.667-1.333s1.612-1.356 2.667-1.333c1.054-0.022 2.052 0.477 2.667 1.333s1.612 1.355 2.667 1.333c0.463-0.013 0.918-0.127 1.333-0.333"></path>
</symbol>
<symbol id="icon-template" viewBox="0 0 32 32">
<path fill="none" stroke="#9ca3af" style="stroke: var(--color2, #9ca3af)" stroke-linejoin="round" stroke-linecap="round" stroke-miterlimit="4" stroke-width="2.6667" d="M1.778 23.111l8.152-8.152c1.389-1.389 3.64-1.389 5.028 0l8.153 8.152M19.556 19.556l2.819-2.819c1.388-1.389 3.64-1.389 5.028 0l2.819 2.819M19.556 8.889h0.018M5.333 30.222h21.333c1.964 0 3.556-1.592 3.556-3.556v-21.333c0-1.964-1.592-3.556-3.556-3.556h-21.333c-1.964 0-3.556 1.592-3.556 3.556v21.333c0 1.964 1.592 3.556 3.556 3.556z"></path>
</symbol>
<symbol id="icon-trip" viewBox="0 0 32 32">
<path fill="none" stroke="#9ca3af" style="stroke: var(--color2, #9ca3af)" stroke-linejoin="round" stroke-linecap="round" stroke-miterlimit="4" stroke-width="2.4" d="M30.4 19.609c-4.447 1.8-9.308 2.791-14.4 2.791s-9.953-0.991-14.4-2.791M22.4 8v-3.2c0-1.767-1.433-3.2-3.2-3.2h-6.4c-1.767 0-3.2 1.433-3.2 3.2v3.2M16 17.6h0.016M4.8 30.4h22.4c1.767 0 3.2-1.433 3.2-3.2v-16c0-1.767-1.433-3.2-3.2-3.2h-22.4c-1.767 0-3.2 1.433-3.2 3.2v16c0 1.767 1.433 3.2 3.2 3.2z"></path>
</symbol>
<symbol id="icon-up" viewBox="0 0 32 32">
<path fill="#a1a9b8" style="fill: var(--color4, #a1a9b8)" d="M17.562 7.952c-0.801-1.001-2.323-1.001-3.123 0l-11.839 14.798c-1.048 1.31-0.115 3.249 1.562 3.249h23.678c1.677 0 2.609-1.94 1.562-3.249l-11.839-14.798z"></path>
</symbol>
</defs>
</svg>
